<svg xmlns="http://www.w3.org/2000/svg" fill="currentColor"  viewBox="0 0 14.9 17">
<path d="M11.4,1.2l-.3-.8c-.1-.3-.4-.4-.7-.4h-5.9c-.3,0-.6.2-.7.4l-.3.8H.7c-.4,0-.7.3-.7.7v.8h14.9v-.8c0-.4-.3-.7-.7-.7h-2.7Z"/>
<path d="M3.5,17h7.8c.3,0,.5-.2.6-.5l1.7-12.2c0-.2-.1-.3-.3-.3H1.6c-.2,0-.3.2-.3.3l1.7,12.2c0,.3.3.5.6.5ZM9.5,13.6l.8-6c0-.2.2-.4.5-.3.2,0,.4.2.4.4l-.8,6c0,.2-.2.4-.5.3-.2,0-.4-.2-.4-.4ZM7,7.6c0-.2.2-.4.4-.4h0c.2,0,.4.2.4.4v6c0,.2-.2.4-.4.4h0c-.2,0-.4-.2-.4-.4v-6ZM4.2,7.2c.2,0,.4.1.5.3l.8,6c0,.2-.1.4-.4.4-.2,0-.4-.1-.5-.3l-.8-6c0-.2.1-.4.4-.4Z"/>
</svg>