<svg xmlns="http://www.w3.org/2000/svg" height="20" width="20" fill="currentColor" viewBox="0 0 43.6 38.1">
      <g>
        <path d="M32.2,38.1c-.6,0-1.2-.2-1.7-.7l-6.1-5.7H5.7c-3.1,0-5.7-2.5-5.7-5.7V5.7C0,2.5,2.5,0,5.7,0h32.2c3.1,0,5.7,2.5,5.7,5.7v20.5c0,3.1-2.5,5.7-5.7,5.7h-3.2v3.8c0,1-.6,1.9-1.5,2.3-.3.1-.7.2-1,.2ZM5.7,2c-2,0-3.6,1.6-3.6,3.6v20.5c0,2,1.6,3.6,3.6,3.6h19.2c.3,0,.5,0,.7.3l6.4,5.9c.2.2.4.1.5,0,0,0,.3-.1.3-.4v-4.9c0-.6.5-1,1-1h4.2c2,0,3.6-1.6,3.6-3.6V5.7c0-2-1.6-3.6-3.6-3.6H5.7Z"/>
        <g>
          <path d="M13.2,13.8c0,1-.8,1.9-1.9,1.9s-1.9-.8-1.9-1.9.8-1.9,1.9-1.9,1.9.8,1.9,1.9Z"/>
          <path d="M25.5,13.8c0,1-.8,1.9-1.9,1.9s-1.9-.8-1.9-1.9.8-1.9,1.9-1.9,1.9.8,1.9,1.9Z"/>
          <path d="M17.5,21.4c-3,0-4-2.5-4-4.2s.5-1,1-1,1,.5,1,1c0,.4.1,2.2,2,2.2s2-2,2-2.2c0-.6.5-1,1-1s1,.5,1,1c0,1.7-1.1,4.2-4,4.2Z"/>
        </g>
      </g>

</svg>