<?xml version="1.0" encoding="UTF-8"?>
<svg xmlns="http://www.w3.org/2000/svg" version="1.1" viewBox="0 0 43.6 38.1">
  <!-- Generator: Adobe Illustrator 28.7.1, SVG Export Plug-In . SVG Version: 1.2.0 Build 142)  -->
  <g>
    <g id="Layer_1">
      <path d="M38.9,2.7H4.7C2.1,2.7,0,4.8,0,7.4v23.4C0,33.3,2.1,35.4,4.7,35.4h34.3c2.6,0,4.7-2.1,4.7-4.7V7.4c0-2.6-2.1-4.7-4.7-4.7ZM38.3,12l-14.2,11.1c-.7.5-1.5.8-2.3.8s-1.6-.3-2.3-.8L5.2,12c-.4-.3-.5-1-.2-1.4.3-.4,1-.5,1.4-.2l14.2,11.1c.6.5,1.5.5,2.2,0l14.2-11.1c.4-.4,1.1-.3,1.4.2.3.4.3,1.1-.2,1.4Z"/>
    </g>
  </g>
</svg>