<svg xmlns="http://www.w3.org/2000/svg" fill="currentColor" viewBox="0 0 12.8 9.7">
  <path class="cls-1" d="M6.8,0c-.1,0-.3,0-.4,0l-3.1,2.6c0,0-.1.2-.1.3v3.7c0,.1,0,.2.1.3l3.1,2.6c0,0,.2,0,.3,0s.1,0,.2,0c.1,0,.2-.2.2-.4V.4c0-.2,0-.3-.2-.4Z"/>
  <path class="cls-1" d="M1.9,2.9l-1.6.3c-.2,0-.3.2-.3.4v2.5c0,.2.1.4.3.4l1.6.3s0,0,0,0c0,0,.2,0,.3,0,0,0,.1-.2.1-.3v-3.1c0-.1,0-.2-.1-.3,0,0-.2-.1-.3,0Z"/>
  <path class="cls-1" d="M11,4.9l1.7-1.7c.2-.2.2-.4,0-.6-.2-.2-.4-.2-.6,0l-1.7,1.7-1.7-1.7c-.2-.2-.4-.2-.6,0-.2.2-.2.4,0,.6l1.7,1.7-1.7,1.7c-.2.2-.2.4,0,.6,0,0,.2.1.3.1s.2,0,.3-.1l1.7-1.7,1.7,1.7c0,0,.2.1.3.1s.2,0,.3-.1c.2-.2.2-.4,0-.6l-1.7-1.7Z"/>
</svg>