<svg xmlns="http://www.w3.org/2000/svg" fill="currentColor" viewBox="0 0 12.8 10.2">
<path class="cls-1" d="M7.2,0c-.1,0-.3,0-.4,0l-3.3,2.7c0,0-.2.2-.2.3v3.9c0,.1,0,.2.2.3l3.3,2.7c0,0,.2,0,.3,0s.1,0,.2,0c.1,0,.2-.2.2-.4V.4c0-.2,0-.3-.2-.4Z"/>
<path class="cls-1" d="M8.8,2c-.2.2-.2.4,0,.6.6.7.9,1.6.9,2.5s-.3,1.8-.9,2.5c-.2.2-.1.4,0,.6,0,0,.2.1.3.1s.2,0,.3-.1c.7-.8,1.1-1.9,1.1-3s-.4-2.2-1.1-3.1c-.2-.2-.4-.2-.6,0Z"/>
<path class="cls-1" d="M11.4,1c-.1-.2-.4-.2-.6,0-.2.1-.2.4,0,.6.8,1,1.2,2.3,1.2,3.6s-.4,2.6-1.2,3.6c-.1.2-.1.4,0,.6,0,0,.2,0,.3,0,.1,0,.3,0,.3-.2.9-1.2,1.4-2.6,1.4-4.1s-.5-2.9-1.4-4.1Z"/>
<path class="cls-1" d="M2,3l-1.7.3c-.2,0-.3.2-.3.4v2.6c0,.2.1.4.3.4l1.7.3s0,0,0,0c0,0,.2,0,.3,0,0,0,.2-.2.2-.3v-3.3c0-.1,0-.2-.2-.3,0,0-.2-.1-.3,0Z"/>
</svg>