<svg xmlns="http://www.w3.org/2000/svg" fill="currentColor" viewBox="0 0 12.8 13.7">
        <path d="M4.2,8.3s.2,1.6,2.2,2.3c2.1-.7,2.2-2.3,2.2-2.3h0c0,0,0-.1,0-.2,0-.7-.5-1.3-1.1-1.3s-1.1.6-1.1,1.3,0,0,0,0h0s0,0,0,0c0,0,0,0,0,0,0-.7-.5-1.3-1.1-1.3s-1.1.6-1.1,1.3,0,.1,0,.2h0Z"/>
        <path d="M10.3.9h-.2V.4c0-.2-.2-.4-.4-.4s-.4.2-.4.4v.5h-1.5V.4c0-.2-.2-.4-.4-.4s-.4.2-.4.4v.5h-1.5V.4c0-.2-.2-.4-.4-.4s-.4.2-.4.4v.5h-1.5V.4c0-.2-.2-.4-.4-.4s-.4.2-.4.4v.5h-.2C1.1.9,0,1.8,0,2.9v8.3c0,1.4,1.1,2.5,2.5,2.5h7.9c1.4,0,2.5-1.1,2.5-2.5V2.9c0-1.1-1.1-2-2.5-2ZM11.8,11.2c0,.8-.7,1.5-1.5,1.5H2.5c-.8,0-1.5-.7-1.5-1.5v-6.8h10.9v6.8Z"/>
</svg>