<svg xmlns="http://www.w3.org/2000/svg" fill="currentColor" viewBox="0 0 12.8 12.2">
        <path d="M4.1,6.8s.2,1.7,2.3,2.4c2.1-.7,2.3-2.4,2.3-2.4h0c0,0,0-.1,0-.2,0-.7-.5-1.3-1.1-1.3s-1.1.6-1.1,1.3,0,0,0,0h0s0,0,0,0c0,0,0,0,0,0,0-.7-.5-1.3-1.1-1.3s-1.1.6-1.1,1.3,0,.1,0,.2h0Z"/>
        <path d="M8.5.9C7.3-.3,5.5-.3,4.3.9L.6,4.8c-.4.4-.6.9-.6,1.4v4.1c0,1.1.9,1.9,1.9,1.9h9c1.1,0,1.9-.9,1.9-1.9v-4.1c0-.5-.2-1-.6-1.4l-3.7-3.9ZM10.6,11H2.2c-.5,0-1-.4-1-1v-3.4c0-.3.1-.7.4-.9L5.6,1.6c.4-.4,1.1-.4,1.6,0l4.1,4.1c.2.2.4.6.4.9v3.4c0,.5-.4,1-1,1Z"/>
</svg>